<?xml version="1.0" encoding="UTF-8"?>
<svg xmlns="http://www.w3.org/2000/svg" xmlns:xlink="http://www.w3.org/1999/xlink" width="38px" height="34px" viewBox="0 0 37 34" version="1.1">
<g id="surface1">
<path style=" stroke:none;fill-rule:nonzero;fill:rgb(100%,100%,100%);fill-opacity:1;" d="M 33.53125 0 C 33.101562 0 32.585938 0.09375 32.242188 0.359375 C 31.902344 0.445312 30.523438 1.074219 28.292969 2.148438 C 26.058594 3.132812 23.136719 4.476562 20.046875 5.90625 C 13.777344 8.675781 6.816406 11.808594 3.210938 13.515625 C 3.125 13.597656 2.609375 13.78125 2.007812 14.136719 C 1.578125 14.496094 0.980469 15.386719 0.980469 16.285156 C 0.980469 17 1.324219 17.898438 1.839844 18.25 C 2.179688 18.789062 2.695312 19.058594 3.039062 19.148438 C 4.414062 19.773438 8.964844 21.652344 9.824219 22.015625 C 10.167969 22.996094 11.714844 28.09375 12.144531 29.4375 C 12.402344 30.246094 12.574219 30.78125 12.917969 31.226562 C 13.003906 31.496094 13.261719 31.582031 13.515625 31.671875 C 13.605469 31.671875 13.777344 31.765625 13.777344 31.765625 C 13.777344 31.765625 13.777344 31.765625 13.863281 31.765625 L 13.945312 31.765625 C 14.203125 31.851562 14.378906 31.851562 14.632812 31.851562 C 15.40625 31.851562 16.011719 31.40625 16.011719 31.40625 L 20.390625 27.382812 L 25.710938 32.75 C 25.800781 32.835938 26.488281 33.824219 28.035156 33.824219 C 28.976562 33.824219 29.664062 33.371094 30.09375 32.835938 C 30.523438 32.386719 30.867188 31.765625 31.042969 31.136719 C 31.125 30.515625 36.195312 4.023438 36.195312 4.023438 C 36.28125 3.308594 36.449219 2.6875 36.195312 2.058594 C 36.109375 1.429688 35.589844 0.804688 34.992188 0.445312 C 34.390625 0.09375 33.960938 0 33.53125 0 Z M 33.1875 3.308594 C 33.1875 3.402344 28.292969 29.617188 28.035156 30.597656 C 28.035156 30.515625 28.035156 30.691406 27.949219 30.691406 C 27.863281 30.597656 27.6875 30.597656 27.6875 30.597656 L 20.390625 23.265625 L 15.152344 28.003906 L 16.695312 21.5625 C 16.695312 21.5625 26.320312 11.09375 26.917969 10.558594 C 27.347656 10.113281 27.519531 9.929688 27.519531 9.75 C 27.519531 9.574219 27.433594 9.398438 27.175781 9.398438 C 26.917969 9.398438 26.570312 9.664062 26.488281 9.75 C 24.425781 11.1875 15.0625 16.824219 10.859375 19.328125 C 10.253906 18.964844 5.703125 17 4.070312 16.285156 C 7.675781 14.671875 14.632812 11.539062 20.90625 8.675781 C 24.082031 7.25 26.917969 5.996094 29.148438 4.921875 C 31.554688 4.023438 33.015625 3.402344 33.1875 3.308594 Z M 33.1875 3.308594 "/>
</g>
</svg>
